<svg viewBox="0 0 8.8643 15.0309" fill="none" xmlns="http://www.w3.org/2000/svg" xmlns:xlink="http://www.w3.org/1999/xlink" x="0" y="0"><path id="Vector_2" d="M0.3938,0.3955c-0.125,0.124 -0.224,0.272 -0.291,0.435c-0.068,0.163 -0.103,0.338 -0.103,0.514c0,0.176 0.035,0.351 0.103,0.514c0.067,0.163 0.166,0.31 0.291,0.435l5.223,5.223l-5.223,5.223c-0.252,0.252 -0.393,0.593 -0.393,0.949c0,0.356 0.141,0.698 0.393,0.949c0.252,0.252 0.593,0.393 0.949,0.393c0.356,0 0.697,-0.141 0.949,-0.393l6.179,-6.179c0.125,-0.124 0.224,-0.272 0.291,-0.435c0.068,-0.163 0.103,-0.337 0.103,-0.514c0,-0.176 -0.035,-0.351 -0.103,-0.513c-0.067,-0.163 -0.166,-0.311 -0.291,-0.436l-6.179,-6.179c-0.512,-0.511 -1.373,-0.511 -1.898,0.014z" fill="currentColor"/></svg>