<svg viewBox="0 0 26 27" fill="none" xmlns="http://www.w3.org/2000/svg" xmlns:xlink="http://www.w3.org/1999/xlink" x="0" y="0"><path id="Vector_5" d="M26,25.56c0,0.38 -0.152,0.75 -0.423,1.02c-0.271,0.27 -0.638,0.42 -1.021,0.42h-23.1116c-0.383,0 -0.7504,-0.15 -1.0213,-0.42c-0.2709,-0.27 -0.4231,-0.64 -0.4231,-1.02v-15.149c-0.0002,-0.219 0.05,-0.436 0.1466,-0.634c0.0967,-0.197 0.2372,-0.37 0.411,-0.504l11.5555,-8.969c0.2536,-0.197 0.5657,-0.304 0.8869,-0.304c0.3212,0 0.6333,0.107 0.8869,0.304l11.5551,8.969c0.174,0.134 0.315,0.307 0.411,0.504c0.097,0.198 0.147,0.415 0.147,0.634z" fill="currentColor"/></svg>