<svg viewBox="0 0 27.2875 28" fill="none" xmlns="http://www.w3.org/2000/svg" xmlns:xlink="http://www.w3.org/1999/xlink" x="0" y="0"><path id="Vector" d="M16.4158,0c0.212,0 0.418,0.0672 0.589,0.1919c0.171,0.1247 0.298,0.3005 0.363,0.5021l1.1,3.418c0.462,0.226 0.904,0.48 1.326,0.766l3.512,-0.756c0.207,-0.0442 0.423,-0.0216 0.616,0.0647c0.194,0.0863 0.355,0.2317 0.46,0.4153l2.772,4.798c0.106,0.1835 0.151,0.3959 0.128,0.6065c-0.023,0.2107 -0.112,0.4087 -0.254,0.5655l-2.41,2.66c0.035,0.5101 0.035,1.0219 0,1.532l2.41,2.664c0.142,0.1568 0.231,0.3548 0.254,0.5655c0.023,0.2106 -0.022,0.423 -0.128,0.6065l-2.772,4.8c-0.106,0.1833 -0.267,0.3283 -0.46,0.4141c-0.194,0.0859 -0.409,0.1083 -0.616,0.0639l-3.512,-0.756c-0.42,0.284 -0.864,0.54 -1.324,0.766l-1.102,3.418c-0.065,0.2016 -0.192,0.3774 -0.363,0.5021c-0.171,0.1247 -0.377,0.1919 -0.589,0.1919h-5.544c-0.212,0 -0.418,-0.0672 -0.589,-0.1919c-0.171,-0.1247 -0.298,-0.3005 -0.363,-0.5021l-1.098,-3.416c-0.461,-0.2253 -0.905,-0.4826 -1.33,-0.77l-3.51,0.758c-0.207,0.0442 -0.423,0.0216 -0.616,-0.0647c-0.194,-0.0863 -0.355,-0.2317 -0.46,-0.4153l-2.772,-4.798c-0.106,-0.1835 -0.151,-0.3959 -0.128,-0.6065c0.023,-0.2107 0.112,-0.4087 0.254,-0.5655l2.41,-2.664c-0.035,-0.5087 -0.035,-1.0193 0,-1.528l-2.41,-2.664c-0.142,-0.1568 -0.231,-0.3548 -0.254,-0.5655c-0.023,-0.2106 0.022,-0.423 0.128,-0.6065l2.772,-4.8c0.106,-0.1833 0.267,-0.3283 0.46,-0.4141c0.194,-0.0859 0.409,-0.1083 0.616,-0.0639l3.51,0.758c0.424,-0.286 0.868,-0.544 1.33,-0.77l1.1,-3.416c0.065,-0.2009 0.191,-0.3762 0.361,-0.5009c0.171,-0.1247 0.376,-0.1922 0.587,-0.1931h5.544zM15.6838,2h-4.08l-1.136,3.534l-0.766,0.374c-0.377,0.1843 -0.74,0.3941 -1.088,0.628l-0.708,0.48l-3.632,-0.784l-2.04,3.536l2.49,2.756l-0.06,0.848c-0.029,0.4182 -0.029,0.8378 0,1.256l0.06,0.848l-2.494,2.756l2.042,3.536l3.632,-0.782l0.708,0.478c0.348,0.2339 0.711,0.4437 1.088,0.628l0.766,0.374l1.138,3.534h4.084l1.14,-3.536l0.764,-0.372c0.376,-0.1838 0.739,-0.3937 1.086,-0.628l0.706,-0.478l3.634,0.782l2.04,-3.536l-2.492,-2.756l0.06,-0.848c0.029,-0.4188 0.029,-0.8392 0,-1.258l-0.06,-0.848l2.494,-2.754l-2.042,-3.536l-3.634,0.78l-0.706,-0.476c-0.347,-0.2343 -0.71,-0.4442 -1.086,-0.628l-0.764,-0.372l-1.142,-3.536zM13.6438,8c1.591,0 3.117,0.6321 4.243,1.7574c1.125,1.1252 1.757,2.6513 1.757,4.2426c0,1.5913 -0.632,3.1174 -1.757,4.2426c-1.126,1.1253 -2.652,1.7574 -4.243,1.7574c-1.591,0 -3.117,-0.6321 -4.243,-1.7574c-1.125,-1.1252 -1.757,-2.6513 -1.757,-4.2426c0,-1.5913 0.632,-3.1174 1.757,-4.2426c1.126,-1.1253 2.652,-1.7574 4.243,-1.7574zM13.6438,10c-1.061,0 -2.078,0.4214 -2.828,1.1716c-0.751,0.7501 -1.172,1.7675 -1.172,2.8284c0,1.0609 0.421,2.0783 1.172,2.8284c0.75,0.7502 1.767,1.1716 2.828,1.1716c1.061,0 2.078,-0.4214 2.828,-1.1716c0.751,-0.7501 1.172,-1.7675 1.172,-2.8284c0,-1.0609 -0.421,-2.0783 -1.172,-2.8284c-0.75,-0.7502 -1.767,-1.1716 -2.828,-1.1716z" fill="currentColor"/></svg>