<svg viewBox="0 0 11.965 16.1015" fill="none" xmlns="http://www.w3.org/2000/svg" xmlns:xlink="http://www.w3.org/1999/xlink" x="0" y="0"><path id="Vector" d="M11.8654,7.8688l-5.471,-7.648c-0.049,-0.068 -0.113,-0.124 -0.188,-0.162c-0.075,-0.039 -0.157,-0.059 -0.241,-0.059h-0.001c-0.085,0 -0.168,0.021 -0.242,0.059c-0.075,0.039 -0.14,0.095 -0.188,0.164l-5.437,7.647c-0.056,0.079 -0.089,0.172 -0.096,0.269c-0.007,0.097 0.013,0.194 0.058,0.28c0.044,0.086 0.112,0.158 0.194,0.209c0.083,0.05 0.178,0.077 0.275,0.077h2.559v6.869c0,0.069 0.013,0.138 0.04,0.202c0.026,0.064 0.065,0.122 0.114,0.171c0.049,0.049 0.108,0.088 0.172,0.115c0.064,0.026 0.133,0.04 0.202,0.04h4.734c0.069,0 0.138,-0.014 0.202,-0.041c0.064,-0.026 0.122,-0.065 0.171,-0.114c0.049,-0.049 0.088,-0.108 0.115,-0.172c0.026,-0.064 0.04,-0.133 0.04,-0.202v-6.868h2.559c0.198,0 0.379,-0.111 0.47,-0.287c0.045,-0.087 0.064,-0.184 0.057,-0.28c-0.007,-0.097 -0.041,-0.19 -0.098,-0.269z" fill="currentColor"/></svg>