<svg viewBox="0 0 28 28" fill="none" xmlns="http://www.w3.org/2000/svg" xmlns:xlink="http://www.w3.org/1999/xlink" x="0" y="0"><path id="Vector_6" d="M19.463,0.001c-4.715,0 -8.537,2.108 -8.537,4.712c0,2.603 3.824,4.712 8.537,4.712c4.715,0 8.537,-2.109 8.537,-4.712c0,-2.604 -3.823,-4.712 -8.537,-4.712zM28,6.112c-0.002,2.604 -3.822,4.713 -8.537,4.713c-4.701,0 -8.515,-2.086 -8.537,-4.678v1.843c0,1.113 0.713,2.131 1.88,2.937c1.18,0.322 2.231,0.768 3.106,1.331c1.085,0.276 2.278,0.444 3.551,0.444c4.715,0 8.537,-2.108 8.537,-4.712zM28,9.39c0,2.604 -3.822,4.713 -8.537,4.713c-0.573,0 -1.131,-0.043 -1.673,-0.103c0.428,0.576 0.72,1.241 0.854,1.946c0.272,0.015 0.541,0.034 0.819,0.034c4.715,0 8.537,-2.108 8.537,-4.712zM8.537,12.019c-4.715,0 -8.537,2.109 -8.537,4.713c0,2.603 3.823,4.712 8.537,4.712c4.715,0 8.537,-2.109 8.537,-4.712c0,-2.604 -3.824,-4.713 -8.537,-4.713zM28,12.668c-0.002,2.604 -3.822,4.713 -8.537,4.713c-0.274,0 -0.552,-0.02 -0.819,-0.035c-0.012,0.082 -0.019,0.191 -0.034,0.273c0.054,0.165 0.101,0.328 0.101,0.513v1.093c0.248,0.012 0.498,0.033 0.752,0.033c4.715,0 8.537,-2.108 8.537,-4.712zM28,15.946c-0.002,2.604 -3.822,4.713 -8.537,4.713c-0.274,0 -0.552,-0.02 -0.819,-0.035c-0.012,0.082 -0.019,0.191 -0.034,0.273c0.054,0.164 0.101,0.328 0.101,0.513v1.093c0.248,0.012 0.498,0.033 0.752,0.033c4.715,0 8.537,-2.108 8.537,-4.712zM17.074,18.131c-0.003,2.604 -3.822,4.713 -8.537,4.713c-4.702,0 -8.515,-2.086 -8.537,-4.679v1.845c0,2.603 3.821,4.712 8.537,4.712c4.716,0 8.537,-2.109 8.537,-4.712zM17.074,21.409c-0.003,2.604 -3.822,4.711 -8.537,4.711c-4.702,0 -8.515,-2.084 -8.537,-4.677v1.844c0,2.603 3.821,4.713 8.537,4.713c4.716,0 8.537,-2.11 8.537,-4.713z" fill="currentColor"/></svg>