<svg viewBox="0 0 17.5 22.5" fill="none" xmlns="http://www.w3.org/2000/svg" xmlns:xlink="http://www.w3.org/1999/xlink" x="0" y="0"><path id="Vector_7" d="M5,10.625h7.5c0.177,0 0.326,-0.06 0.445,-0.18c0.119,-0.12 0.179,-0.269 0.18,-0.446c0.001,-0.178 -0.059,-0.326 -0.18,-0.445c-0.121,-0.119 -0.269,-0.179 -0.445,-0.179h-7.5c-0.177,0 -0.326,0.06 -0.445,0.18c-0.119,0.12 -0.179,0.269 -0.18,0.446c-0.001,0.178 0.059,0.326 0.18,0.445c0.121,0.119 0.269,0.179 0.445,0.179zM5,5.625h7.5c0.177,0 0.326,-0.06 0.445,-0.18c0.119,-0.12 0.179,-0.269 0.18,-0.446c0.001,-0.178 -0.059,-0.326 -0.18,-0.445c-0.121,-0.119 -0.269,-0.179 -0.445,-0.179h-7.5c-0.177,0 -0.326,0.06 -0.445,0.18c-0.119,0.12 -0.179,0.269 -0.18,0.446c-0.001,0.178 0.059,0.326 0.18,0.445c0.121,0.119 0.269,0.179 0.445,0.179zM17.39,21.171l-4.28,-5.532c-0.3,-0.402 -0.662,-0.713 -1.086,-0.933c-0.425,-0.221 -0.892,-0.331 -1.399,-0.331h-10.625v-12.355c0,-0.576 0.193,-1.056 0.579,-1.441c0.386,-0.385 0.866,-0.578 1.441,-0.579h13.461c0.575,0 1.056,0.193 1.442,0.579c0.385,0.386 0.578,0.866 0.577,1.441v18.461c0,0.127 -0.009,0.248 -0.028,0.363c-0.018,0.115 -0.045,0.224 -0.082,0.327zM2.02,22.5c-0.576,0 -1.056,-0.192 -1.441,-0.577c-0.385,-0.385 -0.578,-0.866 -0.579,-1.442v-4.856h10.625c0.306,0 0.588,0.068 0.848,0.205c0.26,0.136 0.481,0.325 0.664,0.566l4.409,5.77c-0.152,0.106 -0.318,0.188 -0.496,0.247c-0.178,0.058 -0.368,0.087 -0.57,0.087z" fill="currentColor"/></svg>