<svg viewBox="0 0 5.3186 9.0185" fill="none" xmlns="http://www.w3.org/2000/svg" xmlns:xlink="http://www.w3.org/1999/xlink" x="0" y="0"><path id="Vector_3" d="M0.2359,0.2369c-0.075,0.075 -0.134,0.164 -0.174,0.262c-0.041,0.097 -0.062,0.202 -0.062,0.308c0,0.106 0.021,0.21 0.062,0.308c0.04,0.098 0.099,0.187 0.174,0.261l3.134,3.134l-3.134,3.134c-0.151,0.151 -0.236,0.356 -0.236,0.569c0,0.214 0.085,0.419 0.236,0.57c0.151,0.151 0.356,0.236 0.57,0.236c0.213,0 0.418,-0.085 0.569,-0.236l3.707,-3.708c0.075,-0.074 0.135,-0.163 0.175,-0.261c0.041,-0.097 0.062,-0.202 0.062,-0.308c0,-0.106 -0.021,-0.21 -0.062,-0.308c-0.04,-0.098 -0.1,-0.187 -0.175,-0.261l-3.707,-3.708c-0.307,-0.307 -0.824,-0.307 -1.139,0.008z" fill="currentColor"/></svg>